<svg width="500" height="500" viewBox="0 0 500 500" fill="none" xmlns="http://www.w3.org/2000/svg">
    <g clip-path="url(#clip0_350_116)">
        <path d="M550 -50H-50V550H550V-50Z" fill="white"/>
        <path d="M550 -50H-50V550H550V-50Z" fill="white"/>
        <path d="M550 -50H-50V550H550V-50Z" fill="#129DA7"/>
        <mask id="mask0_350_116" style="mask-type:luminance" maskUnits="userSpaceOnUse" x="58" y="58" width="383" height="383">
            <path d="M58.9114 58.9115H440.911V440.911H58.9114V58.9115Z" fill="white"/>
        </mask>
        <g mask="url(#mask0_350_116)">
            <path d="M58.9114 58.9115V440.911H440.911V58.9115H58.9114ZM431.156 431.156H68.6666V68.6667H431.151V431.156H431.156Z" fill="white"/>
        </g>
        <path d="M144.557 355.578L355.276 144.854" stroke="white" stroke-width="6.99725"/>
        <mask id="mask1_350_116" style="mask-type:luminance" maskUnits="userSpaceOnUse" x="161" y="142" width="23" height="22">
            <path d="M161.333 142.219H184V164H161.333V142.219Z" fill="white"/>
        </mask>
        <g mask="url(#mask1_350_116)">
            <path d="M172.604 163.698C178.531 163.698 183.344 158.885 183.344 152.958C183.344 147.026 178.531 142.219 172.604 142.219C166.672 142.219 161.865 147.026 161.865 152.958C161.865 158.885 166.672 163.698 172.604 163.698Z" fill="white"/>
        </g>
        <path d="M172.604 183.667C179.979 183.667 187.536 181.115 186.354 174.042C185.875 171.172 183.5 167.146 181.698 165.344C181.463 165.109 180.406 165.047 180.12 165.224C177.927 166.578 175.359 167.365 172.604 167.365C169.849 167.365 167.276 166.578 165.088 165.224C164.802 165.047 163.745 165.109 163.51 165.344C161.708 167.146 159.328 171.172 158.849 174.042C157.672 181.115 165.229 183.667 172.604 183.667Z" fill="white"/>
        <path d="M143.484 215.245C149.412 215.245 154.224 210.438 154.224 204.505C154.224 198.578 149.412 193.766 143.484 193.766C137.552 193.766 132.745 198.578 132.745 204.505C132.745 210.438 137.552 215.245 143.484 215.245Z" fill="white"/>
        <mask id="mask2_350_116" style="mask-type:luminance" maskUnits="userSpaceOnUse" x="129" y="216" width="30" height="20">
            <path d="M129.333 216H158.667V235.219H129.333V216Z" fill="white"/>
        </mask>
        <g mask="url(#mask2_350_116)">
            <path d="M152.578 216.891C152.344 216.656 151.286 216.599 151 216.776C148.807 218.125 146.239 218.911 143.484 218.911C140.724 218.911 138.156 218.125 135.969 216.776C135.682 216.599 134.62 216.656 134.39 216.891C132.583 218.693 130.208 222.719 129.729 225.594C128.552 232.667 136.109 235.219 143.484 235.219C150.859 235.219 158.417 232.667 157.234 225.594C156.755 222.719 154.38 218.693 152.578 216.891Z" fill="white"/>
        </g>
        <path d="M201.724 215.245C207.651 215.245 212.458 210.438 212.458 204.505C212.458 198.578 207.651 193.766 201.724 193.766C195.792 193.766 190.984 198.578 190.984 204.505C190.984 210.438 195.792 215.245 201.724 215.245Z" fill="white"/>
        <mask id="mask3_350_116" style="mask-type:luminance" maskUnits="userSpaceOnUse" x="186" y="216" width="30" height="20">
            <path d="M186.667 216H216V235.219H186.667V216Z" fill="white"/>
        </mask>
        <g mask="url(#mask3_350_116)">
            <path d="M215.474 225.594C214.995 222.719 212.62 218.693 210.818 216.891C210.583 216.656 209.521 216.599 209.234 216.776C207.047 218.125 204.479 218.911 201.724 218.911C198.964 218.911 196.396 218.125 194.208 216.776C193.917 216.599 192.859 216.656 192.63 216.891C190.823 218.693 188.448 222.719 187.969 225.594C186.792 232.667 194.344 235.219 201.724 235.219C209.099 235.219 216.651 232.667 215.474 225.594Z" fill="white"/>
        </g>
        <path d="M187.177 209.599L174.375 202.208V187.427C174.375 186.448 173.583 185.656 172.604 185.656C171.625 185.656 170.833 186.448 170.833 187.427V202.208L158.031 209.599C157.182 210.089 156.89 211.177 157.38 212.021C157.87 212.87 158.953 213.156 159.802 212.672L172.604 205.276L185.406 212.667C186.25 213.156 187.333 212.87 187.823 212.021C188.312 211.177 188.021 210.089 187.177 209.599Z" fill="white"/>
        <path d="M301.528 336.813C296.971 336.813 293.632 335.849 291.507 333.917C289.393 331.974 288.341 328.802 288.341 324.396V310.438C288.341 305.995 289.289 302.813 291.195 300.896C293.112 298.979 296.289 298.021 300.737 298.021H302.841C306.507 298.021 309.284 299.052 311.174 301.104C313.06 303.146 314.007 306.136 314.007 310.063V320.146H294.924V325.959C294.924 327.558 295.414 328.802 296.403 329.688C297.388 330.563 298.83 331 300.737 331H311.528V336.813H301.528ZM307.57 314.313V308.5C307.57 307.157 307.122 306.042 306.237 305.167C305.362 304.292 304.257 303.854 302.924 303.854H299.966C298.101 303.854 296.799 304.287 296.049 305.146C295.299 305.995 294.924 307.245 294.924 308.896V314.313H307.57Z" fill="#F4E92A"/>
        <path d="M325.256 298.021H331.464V299.896C333.058 298.646 335.131 298.021 337.672 298.021H339.672C343.865 298.021 346.985 299.011 349.026 300.979C351.068 302.938 352.089 306.094 352.089 310.438V336.813H345.506V308.896C345.506 307.344 345.047 306.115 344.131 305.209C343.224 304.308 342.006 303.854 340.464 303.854H336.881C335.172 303.854 333.901 304.308 333.068 305.209C332.245 306.115 331.839 307.078 331.839 308.104V336.813H325.256V298.021Z" fill="#F4E92A"/>
    </g>
    <defs>
        <clipPath id="clip0_350_116">
            <rect width="500" height="500" fill="white"/>
        </clipPath>
    </defs>
</svg>
