<?xml version="1.0" encoding="UTF-8"?><svg id="_レイヤー_2" xmlns="http://www.w3.org/2000/svg" viewBox="0 0 115.57 24.41"><defs><style>.cls-1{fill:#fff;}.cls-2{fill:#cbcbcb;}</style></defs><g id="_0"><g><rect class="cls-2" width="24.41" height="24.41"/><rect class="cls-1" x="2.2" y="2.35" width="20.02" height="20.01"/><g><path class="cls-2" d="m33.95,5.84c0-.12.08-.19.2-.19h1.25c.16,0,.26.04.33.19l6.01,9.95h.08V5.84c0-.12.08-.19.2-.19h1.23c.12,0,.2.08.2.19v12.88c0,.12-.08.2-.2.2h-1.25c-.13,0-.25-.04-.33-.2l-6.03-9.91h-.06v9.91c0,.12-.08.2-.2.2h-1.23c-.12,0-.2-.08-.2-.2V5.84Z"/><path class="cls-2" d="m46.61,16.03c-.25-.77-.35-1.57-.35-3.75s.1-2.99.35-3.74c.68-2.05,2.28-3.11,4.51-3.11s3.85,1.05,4.53,3.11c.25.76.35,1.56.35,3.74s-.1,2.98-.35,3.75c-.68,2.05-2.28,3.1-4.53,3.1s-3.82-1.05-4.51-3.1Zm7.34-.49c.16-.49.29-1.35.29-3.26s-.14-2.77-.29-3.26c-.41-1.27-1.35-1.97-2.83-1.97s-2.4.71-2.81,1.97c-.16.49-.29,1.35-.29,3.26s.14,2.77.29,3.26c.41,1.27,1.35,1.97,2.81,1.97s2.42-.7,2.83-1.97Z"/><path class="cls-2" d="m63.5,5.84c0-.12.08-.19.19-.19h1.35c.12,0,.2.08.2.19v12.88c0,.12-.08.2-.2.2h-1.35c-.11,0-.19-.08-.19-.2V5.84Z"/><path class="cls-2" d="m68.52,5.84c0-.12.08-.19.2-.19h1.27c.16,0,.25.06.31.19l3.96,8.94h.06l3.88-8.94c.06-.13.16-.19.31-.19h1.27c.12,0,.2.08.2.19v12.88c0,.12-.08.2-.2.2h-1.23c-.12,0-.2-.08-.2-.2v-9.23h-.06l-3.3,7.3c-.08.17-.17.23-.35.23h-.78c-.2,0-.29-.06-.37-.23l-3.3-7.3h-.06v9.23c0,.12-.08.2-.2.2h-1.23c-.12,0-.2-.08-.2-.2V5.84Z"/><path class="cls-2" d="m86.69,5.84c.04-.12.1-.19.23-.19h1.27c.13,0,.21.08.25.19l4.55,12.88c.04.12-.02.2-.14.2h-1.37c-.14,0-.22-.06-.25-.2l-1.02-2.89h-5.36l-1.02,2.89c-.06.14-.14.2-.25.2h-1.37c-.12,0-.18-.08-.14-.2l4.6-12.88Zm2.97,8.39l-2.09-6.03h-.04l-2.11,6.03h4.23Z"/><path class="cls-2" d="m94.64,12.28c0-2.19.12-2.99.35-3.74.66-2.05,2.3-3.11,4.55-3.11s3.75,1.17,4.41,2.64c.06.11.04.21-.06.27l-1.17.57c-.12.06-.22.02-.27-.1-.64-1.19-1.5-1.76-2.91-1.76-1.5,0-2.46.71-2.87,1.97-.17.49-.27,1.23-.27,3.26s.1,2.77.27,3.26c.41,1.27,1.37,1.97,2.87,1.97,1.35,0,2.44-.66,2.85-1.91.14-.45.26-1.09.26-2.09,0-.08-.04-.12-.12-.12h-2.57c-.12,0-.2-.08-.2-.2v-1.13c0-.12.08-.2.2-.2h4.23c.12,0,.2.08.2.2v1c0,1.19-.13,2.28-.33,2.92-.64,2.01-2.3,3.14-4.51,3.14s-3.88-1.05-4.55-3.1c-.23-.77-.35-1.57-.35-3.75Z"/><path class="cls-2" d="m107.2,5.84c0-.12.08-.19.2-.19h7.98c.12,0,.2.08.2.19v1.23c0,.12-.08.2-.2.2h-6.32c-.08,0-.11.04-.11.11v3.9c0,.08.04.12.11.12h5.37c.11,0,.19.08.19.2v1.23c0,.12-.08.19-.19.19h-5.37c-.08,0-.11.04-.11.12v4.04c0,.08.04.12.11.12h6.32c.12,0,.2.08.2.2v1.23c0,.12-.08.2-.2.2h-7.98c-.12,0-.2-.08-.2-.2V5.84Z"/></g><path class="cls-2" d="m18.81,11.38c-.33-.33-.87-.33-1.2,0l-5.62,5.62c-.33.33-.86.33-1.19,0l-2.89-2.89c-.33-.33-.87-.33-1.2,0l-3.77,3.77c-.16.16-.25.38-.25.6v2.32c0,.46.38.85.85.85h16.94c.47,0,.85-.38.85-.85v-6.56c0-.22-.09-.44-.25-.6l-2.27-2.27Z"/><path class="cls-2" d="m6.57,7.99c0-1.35,1.04-2.46,2.37-2.58-.46-.44-1.08-.71-1.77-.71-1.43,0-2.59,1.16-2.59,2.59s1.16,2.59,2.59,2.59c.07,0,.14,0,.21-.01-.5-.47-.81-1.14-.81-1.88Z"/></g></g></svg>