
        <!--?xml version="1.0" encoding="utf-8"?-->
        <!-- Generator: Adobe Illustrator 18.0.0, SVG Export Plug-In . SVG Version: 6.00 Build 0)  -->

<svg version="1.1" id="_x31_0" xmlns="http://www.w3.org/2000/svg" xmlns:xlink="http://www.w3.org/1999/xlink" x="0px" y="0px" viewBox="0 0 512 512" style="width: 16px; height: 16px; opacity: 1;" xml:space="preserve">
    <style type="text/css">
        .st0{fill:#374149;}
    </style>
    <g>
        <svg width="60" height="46" viewBox="0 0 60 46" fill="none" xmlns="http://www.w3.org/2000/svg">
    <path d="M20.1521 28.445C20.2885 28.3938 20.4191 28.2971 20.544 28.1607C20.5664 28.1388 20.5892 28.116 20.6062 28.087C20.9523 27.6956 21.236 27.253 21.378 26.8392C21.395 26.7879 21.4123 26.7367 21.4293 26.6853C21.7415 25.8001 21.98 24.8017 22.0253 24.5174C22.0308 24.489 22.0308 24.4665 22.0364 24.4436C22.1673 24.483 22.2917 24.5004 22.3999 24.5004C23.7164 24.5004 24.2555 21.8041 24.3294 21.0951C24.4089 20.3801 23.7732 19.8921 23.5407 19.7045C23.5919 19.5909 23.6541 19.4211 23.7165 19.2224C23.7223 19.2104 23.728 19.1935 23.7338 19.1771C23.813 18.9331 23.9266 18.6036 24.0287 18.144C24.0914 17.8711 24.1481 17.548 24.1989 17.1675C24.2328 16.935 24.2388 16.6855 24.2273 16.4415C24.2103 15.9302 24.1024 15.4024 23.9151 14.9199C23.7622 14.5002 23.5461 14.1143 23.2852 13.8021L23.2797 13.7962C23.0981 13.5811 22.8938 13.3595 22.6777 13.1608C21.8267 12.3378 20.8219 11.6736 20.351 11.6736C19.3974 9.96021 18.1771 8.84775 15.9185 8.694C15.7821 8.68849 15.6461 8.68849 15.4987 8.68298H15.4699C13.7674 8.68298 10.8955 10.1474 9.43144 12.1449C9.43144 12.1509 9.43144 12.1509 9.43144 12.1509C9.28354 12.3495 9.15323 12.5533 9.03968 12.7578C8.8469 13.1094 8.67065 13.439 8.52335 13.7512C8.28487 14.2562 8.10312 14.7272 7.99003 15.1978C7.92183 15.4193 7.87659 15.6464 7.85362 15.8794C7.83358 16.0162 7.83897 16.1669 7.82901 16.3079C7.82538 16.3583 7.82257 16.4095 7.82034 16.4604C7.80569 16.7702 7.81401 17.1035 7.84542 17.4505C7.84683 17.4643 7.84823 17.4784 7.84952 17.4921C7.86792 17.6858 7.87202 17.8652 7.90495 18.0753V18.0813C7.95581 18.4278 8.02401 18.8022 8.11472 19.2051C8.12058 19.2105 8.12058 19.2166 8.12058 19.2225C8.18878 19.4212 8.24503 19.591 8.30784 19.7046C8.08073 19.8923 7.51917 20.204 7.5869 20.9136C7.66061 21.6286 8.12058 24.5006 9.43718 24.5006C9.55624 24.5006 9.68022 24.4828 9.81569 24.4439C9.81663 24.4439 9.8171 24.4439 9.8171 24.4439C9.84042 24.6715 9.95936 25.3177 10.2035 25.976C10.2717 26.1691 10.3509 26.4131 10.436 26.6686C10.453 26.7194 10.4704 26.7652 10.4873 26.8165C10.6292 27.2253 10.8957 27.6675 11.2307 28.0479C11.2651 28.0872 11.3044 28.1276 11.3383 28.1669C11.4632 28.2974 11.5942 28.394 11.7302 28.4451V29.2961V30.891C11.4408 31.1579 10.4077 31.9754 8.59167 32.906C6.09464 34.1827 3.17737 35.67 2.53003 36.2601C2.02507 36.7147 1.38933 37.6568 0.861514 38.8932C0.747959 39.1665 0.634522 39.4503 0.532452 39.7506C0.435772 40.023 0.345186 40.3067 0.271475 40.602C0.169053 40.9596 0.0898344 41.3281 0.0215141 41.7085C-0.103408 42.4354 0.339678 43.1331 1.04878 43.3148C5.20894 44.3768 10.368 45.0068 15.9587 45.0068C21.5433 45.0068 26.6964 44.3769 30.8511 43.3208C31.5662 43.1396 32.0088 42.4356 31.8783 41.7085C31.8106 41.3281 31.7249 40.9597 31.6289 40.602C31.5492 40.3069 31.4641 40.023 31.3619 39.7506C31.2653 39.4503 31.1518 39.1665 31.0328 38.8932C30.5104 37.6568 29.8751 36.7202 29.3697 36.2601C28.723 35.6641 25.7942 34.1777 23.2971 32.906C21.4751 31.9694 20.4479 31.1578 20.1527 30.891V29.3135V28.445H20.1521Z" fill="white"/>
            <path d="M55.0003 4.92974C51.957 2.39146 47.9498 0.993408 43.7159 0.993408C39.4824 0.993408 35.4747 2.39146 32.4319 4.92974C29.208 7.62013 27.4323 11.2501 27.4323 15.152C27.4323 20.0923 30.394 24.6369 35.1301 27.1908L35.5021 29.8412C35.6743 31.0671 36.4872 32.1081 37.6344 32.5718C38.0541 32.7417 38.495 32.8245 38.933 32.8245C39.6938 32.8245 40.4464 32.574 41.0657 32.0906L44.6546 29.2877C48.5392 29.0968 52.183 27.724 55.0001 25.3744C58.2242 22.6849 59.9998 19.0545 59.9998 15.152C59.9999 11.2501 58.2243 7.62013 55.0003 4.92974ZM43.7159 25.8464C43.6238 25.8464 43.5324 25.8418 43.4403 25.84L40.4131 28.2043L38.941 29.3424L38.8668 28.8621L38.7222 27.8541L38.2996 24.8447C36.4174 24.1113 34.7859 23.0064 33.5357 21.6458C33.5124 21.6203 33.4877 21.5959 33.4642 21.5707C33.3389 21.4316 33.2217 21.2864 33.1045 21.1423C33.0495 21.0745 32.9914 21.0095 32.9388 20.9409C32.8481 20.8238 32.7652 20.7025 32.6801 20.582C32.611 20.484 32.5382 20.3879 32.4727 20.2886C32.3995 20.1774 32.3335 20.0619 32.2653 19.9485C32.1985 19.8381 32.1289 19.7292 32.0671 19.617C31.993 19.4834 31.9274 19.3456 31.8602 19.2087C31.8144 19.1162 31.7649 19.0252 31.7224 18.9313C31.6266 18.7212 31.5403 18.507 31.4601 18.2904C31.4533 18.2712 31.4445 18.252 31.4373 18.2332C31.0857 17.2576 30.8965 16.2231 30.8965 15.1519C30.8965 9.24634 36.636 4.45806 43.7158 4.45806C50.796 4.45806 56.5354 9.24622 56.5354 15.1519C56.5356 21.0583 50.7962 25.8464 43.7159 25.8464Z" fill="white"/>
            <path d="M47.2778 17.7473C47.368 17.485 47.4339 17.2002 47.4746 16.8926C47.5144 16.585 47.5396 16.2498 47.5497 15.8869C47.5602 15.5239 47.5648 15.1256 47.5648 14.6922C47.5648 14.1782 47.5575 13.7145 47.5424 13.301C47.5361 13.1289 47.5049 12.9866 47.4888 12.826C47.4816 12.7496 47.4733 12.6744 47.4632 12.6003C47.4444 12.4561 47.4413 12.2935 47.4137 12.1589C47.3427 11.811 47.2348 11.4911 47.0887 11.1986C46.9422 10.9064 46.733 10.6241 46.4611 10.3517C46.0981 9.98862 45.6843 9.70901 45.221 9.5126C44.7569 9.31584 44.2126 9.21741 43.5873 9.21741C42.962 9.21741 42.4181 9.31584 41.954 9.5126C41.4898 9.70901 41.0714 9.98862 40.6988 10.3517C40.4264 10.6241 40.2171 10.9064 40.0717 11.1986C39.9252 11.4911 39.8194 11.811 39.7535 12.1589C39.6881 12.5069 39.6474 12.8871 39.6327 13.301C39.6176 13.7145 39.6099 14.1782 39.6099 14.6922C39.6099 15.2063 39.6176 15.6705 39.6327 16.0838C39.6474 16.4971 39.6881 16.8776 39.7535 17.2254C39.8194 17.5733 39.9252 17.8933 40.0717 18.1858C40.2172 18.4783 40.4264 18.7602 40.6988 19.0326C41.0714 19.3956 41.4898 19.6753 41.954 19.8716C42.4181 20.0685 42.962 20.1669 43.5873 20.1669C44.0212 20.1669 44.4168 20.1161 44.7748 20.0153C45.1322 19.9146 45.4573 19.7737 45.7503 19.5919L46.7185 20.5299L47.8221 19.4257L46.8997 18.503C47.0608 18.2614 47.1871 18.0095 47.2778 17.7473ZM45.4247 16.0155C45.4041 16.2915 45.3603 16.5231 45.3025 16.7287C45.2869 16.7726 45.2779 16.8221 45.2591 16.8632L44.4629 16.0667V16.0662L44.4492 16.053L43.3451 17.1721L44.1215 17.9352L44.2793 18.0964C44.0785 18.226 43.8477 18.2914 43.5872 18.2914C43.2946 18.2914 43.0351 18.2359 42.8085 18.1252C42.5814 18.014 42.3878 17.873 42.2262 17.7018C42.1255 17.5909 42.0417 17.4674 41.9767 17.331C41.9108 17.1949 41.8576 17.0188 41.8179 16.8018C41.7771 16.5849 41.7497 16.308 41.7346 15.9695C41.7195 15.6323 41.7122 15.206 41.7122 14.6919C41.7122 14.178 41.7195 13.7522 41.7346 13.4139C41.7497 13.0766 41.7771 12.7968 41.8179 12.5748C41.8576 12.3529 41.9108 12.1738 41.9767 12.0379C42.0416 11.9018 42.1255 11.7783 42.2262 11.6674C42.3878 11.4958 42.5814 11.3571 42.8085 11.2514C43.0351 11.1457 43.2946 11.0926 43.5872 11.0926C43.8792 11.0926 44.1392 11.1457 44.3663 11.2514C44.5934 11.3571 44.7819 11.4959 44.9335 11.6674C45.0337 11.7783 45.117 11.9018 45.183 12.0379C45.2483 12.1738 45.3015 12.3528 45.3414 12.5748C45.3821 12.7968 45.4123 13.0766 45.4324 13.4139C45.4521 13.7522 45.4627 14.178 45.4627 14.6919C45.4627 15.2364 45.4499 15.6777 45.4247 16.0155Z" fill="white"/>
</svg>


    </g>
    </svg>
