<!--?xml version="1.0" encoding="utf-8"?-->
<!-- Generator: Adobe Illustrator 18.0.0, SVG Export Plug-In . SVG Version: 6.00 Build 0)  -->

<svg version="1.1" id="_x31_0" xmlns="http://www.w3.org/2000/svg" xmlns:xlink="http://www.w3.org/1999/xlink" x="0px" y="0px" viewBox="0 0 512 512" style="width: 16px; height: 16px; opacity: 1;" xml:space="preserve">
    <style type="text/css">
        .st0{fill:#374149;}
    </style>
        <g>
        <svg width="72" height="72" viewBox="0 0 72 72" fill="none" xmlns="http://www.w3.org/2000/svg">
<path d="M39.938 46.844L57.95 34.393L63.607 40.05L51.094 58.063" stroke="black" stroke-width="2" stroke-miterlimit="10" stroke-linecap="round" stroke-linejoin="round"/>
<path d="M51.538 60C49.718 51.987 42.564 46 34 46C25.436 46 18.283 51.987 16.462 60H51.538Z" fill="#17949D"/>
<path d="M10 60H58M51.538 60C49.718 51.987 42.564 46 34 46C25.436 46 18.283 51.987 16.462 60H51.538Z" stroke="black" stroke-width="2" stroke-miterlimit="10" stroke-linecap="round"/>
<path d="M34.36 57C33.5387 57 32.9367 56.8273 32.554 56.482C32.1713 56.1273 31.98 55.5533 31.98 54.76V52.24C31.98 51.4373 32.1527 50.8633 32.498 50.518C32.8433 50.1727 33.4173 50 34.22 50H34.598C35.2607 50 35.76 50.1867 36.096 50.56C36.4413 50.924 36.614 51.4607 36.614 52.17V53.99H33.17V55.04C33.17 55.3293 33.2587 55.5533 33.436 55.712C33.6133 55.8707 33.8747 55.95 34.22 55.95H36.166V57H34.36ZM35.452 52.94V51.89C35.452 51.6473 35.3727 51.4467 35.214 51.288C35.0553 51.1293 34.8547 51.05 34.612 51.05H34.08C33.744 51.05 33.506 51.1293 33.366 51.288C33.2353 51.4373 33.17 51.6613 33.17 51.96V52.94H35.452Z" fill="#F4E92A"/>
</svg>

    </g>
    </svg>
    