<!--?xml version="1.0" encoding="utf-8"?-->
<!-- Generator: Adobe Illustrator 18.0.0, SVG Export Plug-In . SVG Version: 6.00 Build 0)  -->

<svg version="1.1" id="_x31_0" xmlns="http://www.w3.org/2000/svg" xmlns:xlink="http://www.w3.org/1999/xlink" x="0px" y="0px" viewBox="0 0 512 512" style="width: 16px; height: 16px; opacity: 1;" xml:space="preserve">
<style type="text/css">
	.st0{fill:#374149;}
</style>
    <g>
	<svg width="57" height="57" viewBox="0 0 57 57" fill="none" xmlns="http://www.w3.org/2000/svg">
<path d="M13.0237 45.6547L3.16663 31.3952L7.64508 26.9167L21.9054 36.8228" fill="white"/>
<path d="M13.0237 45.6547L3.16663 31.3952L7.64508 26.9167L21.9054 36.8228" stroke="black" stroke-width="2" stroke-miterlimit="10" stroke-linecap="round" stroke-linejoin="round"/>
<path d="M40.8008 47.5C39.36 41.1564 33.6964 36.4167 26.9166 36.4167C20.1368 36.4167 14.474 41.1564 13.0323 47.5H40.8008Z" fill="black"/>
<path d="M7.91663 47.5H45.9166ZM40.8009 47.5C39.36 41.1564 33.6965 36.4167 26.9166 36.4167C20.1368 36.4167 14.474 41.1564 13.0324 47.5H40.8009Z" fill="#17949D"/>
<path d="M7.91663 47.5H45.9166M40.8009 47.5C39.36 41.1564 33.6965 36.4167 26.9166 36.4167C20.1368 36.4167 14.474 41.1564 13.0324 47.5H40.8009Z" stroke="black" stroke-width="2" stroke-miterlimit="10" stroke-linecap="round"/>
<path d="M25.3416 39.625H26.1416V39.865C26.3483 39.705 26.615 39.625 26.9416 39.625H27.2016C27.7416 39.625 28.1416 39.7517 28.4016 40.005C28.6683 40.2583 28.8016 40.665 28.8016 41.225V44.625H27.9516V41.025C27.9516 40.825 27.8916 40.6683 27.7716 40.555C27.6583 40.435 27.5016 40.375 27.3016 40.375H26.8416C26.6216 40.375 26.4583 40.435 26.3516 40.555C26.245 40.6683 26.1916 40.7917 26.1916 40.925V44.625H25.3416V39.625Z" fill="#F4E92A"/>
</svg>
</g>
</svg>