<!--?xml version="1.0" encoding="utf-8"?-->
<!-- Generator: Adobe Illustrator 18.0.0, SVG Export Plug-In . SVG Version: 6.00 Build 0)  -->

<svg version="1.1" id="_x31_0" xmlns="http://www.w3.org/2000/svg" xmlns:xlink="http://www.w3.org/1999/xlink" x="0px" y="0px" viewBox="0 0 512 512" style="width: 16px; height: 16px; opacity: 1;" xml:space="preserve">
<style type="text/css">
	.st0{fill:#374149;}
</style>
    <g>
	<svg width="57" height="57" viewBox="0 0 57 57" fill="none" xmlns="http://www.w3.org/2000/svg">
<path d="M31.6176 37.0848L45.8771 27.2278L50.3556 31.7062L40.4494 45.9665" fill="black"/>
<path d="M31.6176 37.0848L45.8771 27.2278L50.3556 31.7062L40.4494 45.9665" stroke="white" stroke-width="2" stroke-miterlimit="10" stroke-linecap="round" stroke-linejoin="round"/>
<path d="M40.8009 47.5C39.3601 41.1564 33.6965 36.4167 26.9167 36.4167C20.1368 36.4167 14.474 41.1564 13.0324 47.5H40.8009Z" fill="#17949D"/>
<path d="M7.91669 47.5H45.9167M40.8009 47.5C39.3601 41.1564 33.6965 36.4167 26.9167 36.4167C20.1369 36.4167 14.4741 41.1564 13.0324 47.5H40.8009Z" stroke="white" stroke-width="2" stroke-miterlimit="10" stroke-linecap="round"/>
<path d="M26.9417 43.8333C26.355 43.8333 25.925 43.71 25.6517 43.4633C25.3784 43.21 25.2417 42.8 25.2417 42.2333V40.4333C25.2417 39.86 25.365 39.45 25.6117 39.2033C25.8584 38.9567 26.2684 38.8333 26.8417 38.8333H27.1117C27.585 38.8333 27.9417 38.9667 28.1817 39.2333C28.4284 39.4933 28.5517 39.8767 28.5517 40.3833V41.6833H26.0917V42.4333C26.0917 42.64 26.155 42.8 26.2817 42.9133C26.4084 43.0267 26.595 43.0833 26.8417 43.0833H28.2317V43.8333H26.9417ZM27.7217 40.9333V40.1833C27.7217 40.01 27.665 39.8667 27.5517 39.7533C27.4384 39.64 27.295 39.5833 27.1217 39.5833H26.7417C26.5017 39.5833 26.3317 39.64 26.2317 39.7533C26.1384 39.86 26.0917 40.02 26.0917 40.2333V40.9333H27.7217Z" fill="#F4E92A"/>
</svg>
</g>
</svg>