<!--?xml version="1.0" encoding="utf-8"?-->
<!-- Generator: Adobe Illustrator 18.0.0, SVG Export Plug-In . SVG Version: 6.00 Build 0)  -->

<svg version="1.1" id="_x31_0" xmlns="http://www.w3.org/2000/svg" xmlns:xlink="http://www.w3.org/1999/xlink" x="0px" y="0px" viewBox="0 0 512 512" style="width: 16px; height: 16px; opacity: 1;" xml:space="preserve">
    <style type="text/css">
        .st0{fill:#374149;}
    </style>
        <g>
        <svg width="72" height="72" viewBox="0 0 72 72" fill="none" xmlns="http://www.w3.org/2000/svg">
<path d="M16.451 57.669L4 39.657L9.657 34L27.67 46.513" fill="white"/>
<path d="M16.451 57.669L4 39.657L9.657 34L27.67 46.513" stroke="black" stroke-width="2" stroke-miterlimit="10" stroke-linecap="round" stroke-linejoin="round"/>
<path d="M51.538 60C49.718 51.987 42.564 46 34 46C25.436 46 18.283 51.987 16.462 60H51.538Z" fill="white"/>
<path d="M10 60H58H10ZM51.538 60C49.718 51.987 42.564 46 34 46C25.436 46 18.283 51.987 16.462 60H51.538Z" fill="#17949D"/>
<path d="M10 60H58M51.538 60C49.718 51.987 42.564 46 34 46C25.436 46 18.283 51.987 16.462 60H51.538Z" stroke="black" stroke-width="2" stroke-miterlimit="10" stroke-linecap="round"/>
<path d="M32.12 51H33.24V51.336C33.5293 51.112 33.9027 51 34.36 51H34.724C35.48 51 36.04 51.1773 36.404 51.532C36.7773 51.8867 36.964 52.456 36.964 53.24V58H35.774V52.96C35.774 52.68 35.69 52.4607 35.522 52.302C35.3633 52.134 35.144 52.05 34.864 52.05H34.22C33.912 52.05 33.6833 52.134 33.534 52.302C33.3847 52.4607 33.31 52.6333 33.31 52.82V58H32.12V51Z" fill="#F4E92A"/>
</svg>
    </g>
    </svg>
    